{
	"asset":{
		"generator":"Khronos glTF Blender I/O v3.6.28",
		"version":"2.0"
	},
	"scene":0,
	"scenes":[
		{
			"name":"Scene",
			"nodes":[
				0
			]
		}
	],
	"nodes":[
		{
			"mesh":0,
			"name":"Plane-col",
			"rotation":[
				0.7071068286895752,
				0,
				0,
				0.7071068286895752
			],
			"scale":[
				6,
				1,
				6
			]
		}
	],
	"materials":[
		{
			"doubleSided":true,
			"name":"Material",
			"pbrMetallicRoughness":{
				"baseColorFactor":[
					0.8000000715255737,
					0,
					0.028179200366139412,
					1
				],
				"metallicFactor":0,
				"roughnessFactor":0.5
			}
		}
	],
	"meshes":[
		{
			"name":"Plane",
			"primitives":[
				{
					"attributes":{
						"POSITION":0,
						"NORMAL":1,
						"TEXCOORD_0":2,
						"TANGENT":3
					},
					"indices":4,
					"material":0
				}
			]
		}
	],
	"accessors":[
		{
			"bufferView":0,
			"componentType":5126,
			"count":499,
			"max":[
				1,
				0,
				1
			],
			"min":[
				-1,
				-5.599425792694092,
				-1
			],
			"type":"VEC3"
		},
		{
			"bufferView":1,
			"componentType":5126,
			"count":499,
			"type":"VEC3"
		},
		{
			"bufferView":2,
			"componentType":5126,
			"count":499,
			"type":"VEC2"
		},
		{
			"bufferView":3,
			"componentType":5126,
			"count":499,
			"type":"VEC4"
		},
		{
			"bufferView":4,
			"componentType":5123,
			"count":1596,
			"type":"SCALAR"
		}
	],
	"bufferViews":[
		{
			"buffer":0,
			"byteLength":5988,
			"byteOffset":0,
			"target":34962
		},
		{
			"buffer":0,
			"byteLength":5988,
			"byteOffset":5988,
			"target":34962
		},
		{
			"buffer":0,
			"byteLength":3992,
			"byteOffset":11976,
			"target":34962
		},
		{
			"buffer":0,
			"byteLength":7984,
			"byteOffset":15968,
			"target":34962
		},
		{
			"buffer":0,
			"byteLength":3192,
			"byteOffset":23952,
			"target":34963
		}
	],
	"buffers":[
		{
			"byteLength":27144,
			"uri":"Stairs-293c570007bf2b2a148b56a464e92303.bin"
		}
	]
}
